# xmcd
#
# Track frame offsets:
#	150
#	10233
#	18828
#	29612
#	40402
#	52484
#	64247
#	74920
#	84340
#	94542
#	103327
#	115980
#	127798
#	138683
#	148386
#	158771
#	169696
#	181805
#	191883
#	201213
#	211980
#	223686
#
# Disc length: 3129 seconds
#
# Revision: 0
# Processed by: cddbd v1.5.2PL0 Copyright (c) Steve Scherf et al.
# Submitted via: EasyCDDAExtractor 16.0.8.1
#
DISCID=560c3716
DTITLE=Diadalmas Rock and Roll - Rock az óra körül
DYEAR=1900
DGENRE=Rock and Roll
TTITLE0=Bill Haley and his Comets - Rock around the clock
TTITLE1=Jerry Lee Lewis - Great Balls of fire
TTITLE2=The Big Bopper - Chantilly Lace
TTITLE3=Fats Domino - Blueberry Hill
TTITLE4=Chuck Berry - Johnny B. Goode
TTITLE5=Elvis Presley - Jailhouse Rock
TTITLE6=Cliff Richard - Move it
TTITLE7=The Ventures - Walk Don't Run
TTITLE8=Elvis Presley - Hound dog
TTITLE9=Eddie Cochran - C'mon Everybody
TTITLE10=Bill Haley and his Comets - See You Later, Alligator
TTITLE11=Gene Vincent and the Blue Caps - Be-Bop-a-Lula
TTITLE12=The Everly Brothers - Bye Bye Love
TTITLE13=Buddy Holly - Oh Boy!
TTITLE14=Neil Sedaka - Oh Carol!
TTITLE15=Paul Anka - Diana
TTITLE16=The Platters - The Great Pretender
TTITLE17=The Champs - Tequila
TTITLE18=Little Richard - Long Tall Sally
TTITLE19=Chubby Checker - Let's Twist Again
TTITLE20=Gene Chandler - Duke of Earl
TTITLE21=Bobby Vee - Rubber Ball
EXTD=
EXTT0=
EXTT1=
EXTT2=
EXTT3=
EXTT4=
EXTT5=
EXTT6=
EXTT7=
EXTT8=
EXTT9=
EXTT10=
EXTT11=
EXTT12=
EXTT13=
EXTT14=
EXTT15=
EXTT16=
EXTT17=
EXTT18=
EXTT19=
EXTT20=
EXTT21=
PLAYORDER=
